<?xml version="1.0" encoding="utf-8"?>
<!-- Generator: Adobe Illustrator 15.0.1, SVG Export Plug-In . SVG Version: 6.00 Build 0)  -->
<!DOCTYPE svg PUBLIC "-//W3C//DTD SVG 1.1//EN" "http://www.w3.org/Graphics/SVG/1.1/DTD/svg11.dtd">
<svg version="1.1" id="Layer_1" xmlns="http://www.w3.org/2000/svg" xmlns:xlink="http://www.w3.org/1999/xlink" x="0px" y="0px"
	 width="350px" height="140px" viewBox="0 0 350 140" enable-background="new 0 0 350 140" xml:space="preserve">
<g>
	<path fill="#EC1C24" d="M260.797,34.667c-1.313,0-2.573,0.521-3.518,1.561c-1.506,1.725-3.775,5.43-3.775,13.489V64.76h-32.607
		c-11.08,0-20.066,8.984-20.066,20.067v35.109c0,11.081,8.986,20.063,20.066,20.063h27.588c11.084,0,20.066-8.982,20.066-20.063
		v-70.22c0-11.375,3.764-15.05,3.764-15.05H260.797z M253.504,117.428c0,4.158-3.368,7.524-7.524,7.524h-22.574
		c-4.156,0-7.524-3.366-7.524-7.524V87.332c0-4.154,3.368-7.522,7.524-7.522h30.099V117.428z"/>
	<path fill="#EC1C24" d="M297.319,87.077c0-4.155,3.372-7.524,7.527-7.524l25.091,0.006c8.054,0,11.79-1.44,13.538-2.773
		c0.914-0.688,1.509-1.785,1.509-3.021V62.252c0,0-4.155,2.506-15.047,2.506h-27.599c-11.084,0-20.067,8.98-20.067,20.063v4.762
		c0,11.082,8.983,20.063,20.067,20.063h25.087c4.155,0,7.523,3.369,7.523,7.526v0.25c0,4.155-3.372,7.524-7.527,7.524l-40.139,0.006
		c-2.772,0-5.012,2.246-5.012,5.016V140l47.658-0.004c11.08,0,20.06-8.984,20.06-20.063l0.011-4.769
		c0-11.083-8.982-20.062-20.07-20.062h-25.083c-4.155,0-7.527-3.369-7.527-7.524V87.077z"/>
	<path fill="#FBF9F6" d="M28.296,0H7.876c0,0-3.501,1.19-5.251,5.653c0,0-2.625,5.357-2.625,10.713c0,5.357,0,123.501,0,123.501
		h17.795c0,0,5.25-1.19,5.541-5.952c0.293-4.762-0.291-40.175-0.291-40.175l36.171,41.961c0,0,2.917,3.866,6.71,4.166
		c3.792,0.298,25.668,0,25.668,0l-44.046-53.27l18.669-23.509h39.38v52.674c0,0,1.044,24.237,22.462,24.237
		c21.663,0,23.919,0,23.919,0s4.96-1.918,5.25-10.251c0.293-8.333,0.293-8.925,0.293-8.925l-18.086-0.004
		c0,0-10.212,0.3-10.212-9.819c0-10.118,0.292-47.912,0.292-47.912s26.839,3.274,28.006-11.308V34.555c0,0-5.709,5.99-21.856,5.99
		l-6.056-0.093l0.092-30.419h-18.898c0,0-4.402,0.468-5.779,5.524V40.64H65.757c0,0-10.274-0.563-18.164,9.454
		c-7.891,10.013-23.945,29.949-23.945,29.949l0.093-64.205C23.74,15.837,23.219,6.345,28.296,0z"/>
	<path fill="#EC1C24" d="M157.521,33.994v18.452c0,0-0.973,10.118-18.474,11.505H48.229c0,0-9.529,0.398-17.112,6.943l17.112-21.821
		c0,0,7.39-9.126,18.669-9.126c11.28,0,74.677,0,74.677,0S152.27,40.145,157.521,33.994z"/>
</g>
</svg>
